<svg width="32" height="32" viewBox="0 0 32 32" fill="none" xmlns="http://www.w3.org/2000/svg">
<rect width="32" height="32" rx="3.76471" fill="#29253D"/>
<path fill-rule="evenodd" clip-rule="evenodd" d="M11 8C11.2652 8 11.5196 8.10536 11.7071 8.29289C11.8946 8.48043 12 8.73478 12 9V10H13C13.2652 10 13.5196 10.1054 13.7071 10.2929C13.8946 10.4804 14 10.7348 14 11C14 11.2652 13.8946 11.5196 13.7071 11.7071C13.5196 11.8946 13.2652 12 13 12H12V13C12 13.2652 11.8946 13.5196 11.7071 13.7071C11.5196 13.8946 11.2652 14 11 14C10.7348 14 10.4804 13.8946 10.2929 13.7071C10.1054 13.5196 10 13.2652 10 13V12H9C8.73478 12 8.48043 11.8946 8.29289 11.7071C8.10536 11.5196 8 11.2652 8 11C8 10.7348 8.10536 10.4804 8.29289 10.2929C8.48043 10.1054 8.73478 10 9 10H10V9C10 8.73478 10.1054 8.48043 10.2929 8.29289C10.4804 8.10536 10.7348 8 11 8ZM11 18C11.2652 18 11.5196 18.1054 11.7071 18.2929C11.8946 18.4804 12 18.7348 12 19V20H13C13.2652 20 13.5196 20.1054 13.7071 20.2929C13.8946 20.4804 14 20.7348 14 21C14 21.2652 13.8946 21.5196 13.7071 21.7071C13.5196 21.8946 13.2652 22 13 22H12V23C12 23.2652 11.8946 23.5196 11.7071 23.7071C11.5196 23.8946 11.2652 24 11 24C10.7348 24 10.4804 23.8946 10.2929 23.7071C10.1054 23.5196 10 23.2652 10 23V22H9C8.73478 22 8.48043 21.8946 8.29289 21.7071C8.10536 21.5196 8 21.2652 8 21C8 20.7348 8.10536 20.4804 8.29289 20.2929C8.48043 20.1054 8.73478 20 9 20H10V19C10 18.7348 10.1054 18.4804 10.2929 18.2929C10.4804 18.1054 10.7348 18 11 18ZM18 8C18.2207 7.99993 18.4352 8.07286 18.6101 8.20744C18.785 8.34201 18.9105 8.53066 18.967 8.744L20.146 13.2L23.5 15.134C23.652 15.2218 23.7782 15.348 23.866 15.5C23.9538 15.652 24 15.8245 24 16C24 16.1755 23.9538 16.348 23.866 16.5C23.7782 16.652 23.652 16.7782 23.5 16.866L20.146 18.801L18.966 23.256C18.9094 23.4691 18.7839 23.6576 18.6091 23.792C18.4343 23.9264 18.22 23.9993 17.9995 23.9993C17.779 23.9993 17.5647 23.9264 17.3899 23.792C17.2151 23.6576 17.0896 23.4691 17.033 23.256L15.854 18.8L12.5 16.866C12.348 16.7782 12.2218 16.652 12.134 16.5C12.0462 16.348 12 16.1755 12 16C12 15.8245 12.0462 15.652 12.134 15.5C12.2218 15.348 12.348 15.2218 12.5 15.134L15.854 13.199L17.034 8.744C17.0905 8.53083 17.2158 8.3423 17.3905 8.20774C17.5652 8.07318 17.7795 8.00015 18 8Z" fill="white"/>
</svg>
