<svg width="24" height="24" viewBox="0 0 24 24" fill="none" xmlns="http://www.w3.org/2000/svg">
<path fill-rule="evenodd" clip-rule="evenodd" d="M7.34004 6.40045C8.57564 5.16485 10.2515 4.4707 11.9989 4.4707C13.7463 4.4707 15.4221 5.16485 16.6577 6.40045C17.8933 7.63605 18.5874 9.31188 18.5874 11.0593C18.5874 12.8067 17.8933 14.4825 16.6577 15.7181L11.9989 20.3769L7.34004 15.7181C6.7282 15.1063 6.24285 14.38 5.91172 13.5806C5.58059 12.7813 5.41016 11.9245 5.41016 11.0593C5.41016 10.194 5.58059 9.33728 5.91172 8.53791C6.24285 7.73855 6.7282 7.01223 7.34004 6.40045ZM11.9989 12.9416C12.4981 12.9416 12.9769 12.7433 13.3299 12.3903C13.6829 12.0373 13.8812 11.5585 13.8812 11.0593C13.8812 10.56 13.6829 10.0813 13.3299 9.72825C12.9769 9.37524 12.4981 9.17692 11.9989 9.17692C11.4996 9.17692 11.0209 9.37524 10.6678 9.72825C10.3148 10.0813 10.1165 10.56 10.1165 11.0593C10.1165 11.5585 10.3148 12.0373 10.6678 12.3903C11.0209 12.7433 11.4996 12.9416 11.9989 12.9416Z" fill="white"/>
</svg>
