<svg width="17" height="16" viewBox="0 0 17 16" fill="none" xmlns="http://www.w3.org/2000/svg">
<path d="M14.899 14L10.697 10M12.0977 6.66667C12.0977 7.2795 11.9709 7.88634 11.7245 8.45252C11.4781 9.01871 11.117 9.53316 10.6618 9.9665C10.2066 10.3998 9.66616 10.7436 9.07138 10.9781C8.47659 11.2126 7.83911 11.3333 7.19533 11.3333C6.55154 11.3333 5.91406 11.2126 5.31927 10.9781C4.72449 10.7436 4.18406 10.3998 3.72884 9.9665C3.27361 9.53316 2.9125 9.01871 2.66614 8.45252C2.41977 7.88634 2.29297 7.2795 2.29297 6.66667C2.29297 5.42899 2.80947 4.242 3.72884 3.36683C4.64821 2.49167 5.89514 2 7.19533 2C8.49551 2 9.74244 2.49167 10.6618 3.36683C11.5812 4.242 12.0977 5.42899 12.0977 6.66667Z" stroke="#141434" stroke-width="1.33333" stroke-linecap="round" stroke-linejoin="round"/>
</svg>
