<svg width="32" height="32" viewBox="0 0 32 32" fill="none" xmlns="http://www.w3.org/2000/svg">
<rect width="32" height="32" rx="3.76471" fill="#29253D"/>
<g clip-path="url(#clip0_715_2111)">
<path d="M26 9.72035L21.4 5.86035L20.11 7.39035L24.71 11.2504L26 9.72035ZM11.88 7.39035L10.6 5.86035L6 9.71035L7.29 11.2404L11.88 7.39035ZM16.5 12.0004H15V18.0004L19.75 20.8504L20.5 19.6204L16.5 17.2504V12.0004ZM16 8.00035C11.03 8.00035 7 12.0304 7 17.0004C7 21.9704 11.02 26.0004 16 26.0004C20.97 26.0004 25 21.9704 25 17.0004C25 12.0304 20.97 8.00035 16 8.00035ZM16 24.0004C12.13 24.0004 9 20.8704 9 17.0004C9 13.1304 12.13 10.0004 16 10.0004C19.87 10.0004 23 13.1304 23 17.0004C23 20.8704 19.87 24.0004 16 24.0004Z" fill="white"/>
</g>
<defs>
<clipPath id="clip0_715_2111">
<rect width="24" height="24" fill="white" transform="translate(4 4)"/>
</clipPath>
</defs>
</svg>
