<svg width="32" height="32" viewBox="0 0 32 32" fill="none" xmlns="http://www.w3.org/2000/svg">
<path fill-rule="evenodd" clip-rule="evenodd" d="M8.37956 8.98405C7.67231 8.98405 6.99404 9.265 6.49394 9.7651C5.99384 10.2652 5.71289 10.9435 5.71289 11.6507V22.3174C5.71289 23.0246 5.99384 23.7029 6.49394 24.203C6.99404 24.7031 7.67231 24.984 8.37956 24.984H24.3796C25.0868 24.984 25.7651 24.7031 26.2652 24.203C26.7653 23.7029 27.0462 23.0246 27.0462 22.3174V11.6507C27.0462 10.9435 26.7653 10.2652 26.2652 9.7651C25.7651 9.265 25.0868 8.98405 24.3796 8.98405H22.2649C21.9113 8.98397 21.5722 8.84345 21.3222 8.59338L19.8276 7.09872C19.3276 6.59858 18.6494 6.31753 17.9422 6.31738H14.8169C14.1097 6.31753 13.4315 6.59858 12.9316 7.09872L11.4369 8.59338C11.1869 8.84345 10.8478 8.98397 10.4942 8.98405H8.37956ZM16.3796 20.984C16.9048 20.984 17.425 20.8806 17.9103 20.6796C18.3956 20.4785 18.8366 20.1839 19.208 19.8125C19.5794 19.441 19.8741 19.0001 20.0751 18.5148C20.2761 18.0295 20.3796 17.5093 20.3796 16.984C20.3796 16.4588 20.2761 15.9386 20.0751 15.4533C19.8741 14.968 19.5794 14.5271 19.208 14.1556C18.8366 13.7842 18.3956 13.4895 17.9103 13.2885C17.425 13.0875 16.9048 12.984 16.3796 12.984C15.3187 12.984 14.3013 13.4055 13.5511 14.1556C12.801 14.9058 12.3796 15.9232 12.3796 16.984C12.3796 18.0449 12.801 19.0623 13.5511 19.8125C14.3013 20.5626 15.3187 20.984 16.3796 20.984Z" fill="white"/>
</svg>
