<svg xmlns="http://www.w3.org/2000/svg" width="32" height="32" viewBox="0 0 32 32" fill="none">
<path d="M18.0193 13.9797C17.1859 13.1465 16.0556 12.6784 14.8771 12.6784C13.6986 12.6784 12.5683 13.1465 11.7349 13.9797L7.29043 18.4241C6.86594 18.8341 6.52735 19.3246 6.29442 19.8668C6.0615 20.409 5.93889 20.9922 5.93376 21.5824C5.92863 22.1725 6.04109 22.7577 6.26456 23.3039C6.48803 23.8502 6.81804 24.3464 7.23534 24.7637C7.65264 25.181 8.14887 25.511 8.69508 25.7345C9.24128 25.9579 9.82653 26.0704 10.4167 26.0653C11.0068 26.0601 11.59 25.9375 12.1322 25.7046C12.6745 25.4717 13.1649 25.1331 13.5749 24.7086L14.7993 23.4853M13.9571 18.0419C14.7906 18.8751 15.9208 19.3432 17.0993 19.3432C18.2778 19.3432 19.4081 18.8751 20.2415 18.0419L24.686 13.5975C25.4956 12.7593 25.9436 11.6366 25.9334 10.4713C25.9233 9.30594 25.4559 8.19121 24.6318 7.36718C23.8078 6.54314 22.6931 6.07572 21.5278 6.0656C20.3625 6.05547 19.2398 6.50345 18.4015 7.31304L17.1793 8.53526" stroke="#141434" stroke-width="2.22222" stroke-linecap="round" stroke-linejoin="round"/>
</svg>