<svg width="24" height="24" viewBox="0 0 24 24" fill="none" xmlns="http://www.w3.org/2000/svg">
<path d="M15.0578 6.52243C15.2157 6.35899 15.4045 6.22862 15.6133 6.13893C15.8221 6.04925 16.0466 6.00204 16.2738 6.00006C16.5011 5.99809 16.7264 6.04139 16.9367 6.12743C17.147 6.21348 17.3381 6.34055 17.4988 6.50122C17.6595 6.6619 17.7865 6.85297 17.8726 7.06328C17.9586 7.27359 18.0019 7.49893 17.9999 7.72615C17.998 7.95337 17.9508 8.17793 17.8611 8.38671C17.7714 8.5955 17.641 8.78433 17.4776 8.94219L16.799 9.62071L14.3793 7.20096L15.0578 6.52243ZM13.1694 8.41083L6 15.5802V18H8.41975L15.59 10.8306L13.1694 8.41083Z" fill="white"/>
</svg>
