<svg width="32" height="32" viewBox="0 0 32 32" fill="none" xmlns="http://www.w3.org/2000/svg">
<path d="M22.6666 13.333C23.4788 13.333 24.2717 13.0858 24.94 12.6242C25.6083 12.1626 26.1202 11.5085 26.4077 10.7489C26.6952 9.98926 26.7447 9.16012 26.5495 8.37172C26.3543 7.58332 25.9237 6.87302 25.315 6.33528C24.7063 5.79753 23.9484 5.45783 23.1419 5.36134C22.3354 5.26485 21.5187 5.41615 20.8004 5.79511C20.082 6.17407 19.496 6.76274 19.1203 7.48284C18.7446 8.20294 18.5971 9.02034 18.6972 9.82634L12.1106 13.1197C11.5455 12.5748 10.8327 12.2082 10.0608 12.0656C9.28896 11.923 8.49218 12.0106 7.76975 12.3175C7.04732 12.6245 6.43117 13.1372 5.99805 13.7919C5.56493 14.4465 5.33398 15.2141 5.33398 15.999C5.33398 16.7839 5.56493 17.5515 5.99805 18.2062C6.43117 18.8608 7.04732 19.3735 7.76975 19.6805C8.49218 19.9874 9.28896 20.0751 10.0608 19.9324C10.8327 19.7898 11.5455 19.4232 12.1106 18.8783L18.6972 22.1717C18.5806 23.108 18.7987 24.0554 19.3129 24.8465C19.8272 25.6376 20.6046 26.2214 21.5077 26.4947C22.4108 26.7681 23.3815 26.7134 24.2481 26.3403C25.1148 25.9672 25.8217 25.2998 26.2439 24.4559C26.666 23.6121 26.7763 22.6462 26.5552 21.7289C26.334 20.8116 25.7958 20.002 25.0355 19.4432C24.2752 18.8844 23.3418 18.6123 22.4003 18.6751C21.4589 18.7379 20.5699 19.1315 19.8906 19.7863L13.3039 16.493C13.3443 16.1654 13.3443 15.834 13.3039 15.5063L19.8906 12.213C20.6079 12.9063 21.5866 13.333 22.6666 13.333Z" fill="#101626"/>
</svg>
