<svg width="32" height="32" viewBox="0 0 32 32" fill="none" xmlns="http://www.w3.org/2000/svg">
<g opacity="0.8">
<rect width="32" height="32" rx="3.76471" fill="#29253D"/>
<path fill-rule="evenodd" clip-rule="evenodd" d="M12 8C11.7348 8 11.4804 8.10536 11.2929 8.29289C11.1054 8.48043 11 8.73478 11 9V10H10C9.46957 10 8.96086 10.2107 8.58579 10.5858C8.21071 10.9609 8 11.4696 8 12V22C8 22.5304 8.21071 23.0391 8.58579 23.4142C8.96086 23.7893 9.46957 24 10 24H22C22.5304 24 23.0391 23.7893 23.4142 23.4142C23.7893 23.0391 24 22.5304 24 22V12C24 11.4696 23.7893 10.9609 23.4142 10.5858C23.0391 10.2107 22.5304 10 22 10H21V9C21 8.73478 20.8946 8.48043 20.7071 8.29289C20.5196 8.10536 20.2652 8 20 8C19.7348 8 19.4804 8.10536 19.2929 8.29289C19.1054 8.48043 19 8.73478 19 9V10H13V9C13 8.73478 12.8946 8.48043 12.7071 8.29289C12.5196 8.10536 12.2652 8 12 8ZM12 13C11.7348 13 11.4804 13.1054 11.2929 13.2929C11.1054 13.4804 11 13.7348 11 14C11 14.2652 11.1054 14.5196 11.2929 14.7071C11.4804 14.8946 11.7348 15 12 15H20C20.2652 15 20.5196 14.8946 20.7071 14.7071C20.8946 14.5196 21 14.2652 21 14C21 13.7348 20.8946 13.4804 20.7071 13.2929C20.5196 13.1054 20.2652 13 20 13H12Z" fill="white"/>
</g>
</svg>
