
<svg width="60" height="20" viewBox="0 0 60 20" fill="none" xmlns="http://www.w3.org/2000/svg">
<g clip-path="url(#clip0_355_4068)">
<path d="M25.1601 5.96995C25.1984 5.99617 25.2367 6.0224 25.275 6.05008C26.0409 6.60515 26.6006 7.43411 26.8274 8.34611C26.9983 9.03667 26.9762 9.78842 26.6743 10.4338C26.5078 10.7893 26.2604 11.104 25.9967 11.3968C25.4901 11.9592 24.8965 12.4632 24.1895 12.743C24.1306 12.7663 24.0643 12.7925 24.0348 12.8479C23.9803 12.9469 24.0672 13.062 24.1468 13.1407C25.2058 14.1926 26.2648 15.2444 27.3238 16.2977C26.5741 16.2977 25.8259 16.3036 25.0762 16.3079C24.814 16.3094 24.6535 16.2657 24.4752 16.0778C23.9833 15.5606 23.4928 15.0448 23.0009 14.5276C22.6253 14.1328 22.1893 13.4612 21.6915 13.2296C21.5825 13.1873 21.4617 13.1873 21.3453 13.1873C20.9963 13.1888 20.6148 13.148 20.2701 13.1931C19.9888 13.2296 20.0389 13.1538 19.98 13.416C19.9402 13.5923 19.98 13.8269 19.98 14.009C19.98 14.1998 19.98 16.3036 19.98 16.3036H17.9371C17.9371 13.84 17.9371 11.3764 17.9371 8.91284V7.06552C17.9371 6.76977 17.9371 6.47403 17.9371 6.17828C17.9371 5.92187 17.8413 5.44984 17.9371 5.21383C18.0328 4.97782 18.2567 5.08125 18.5292 5.08708C18.8488 5.09437 19.1699 5.08854 19.4895 5.08125C20.1052 5.06669 20.7208 5.03609 21.3365 5.04046C21.4602 5.04046 21.5825 5.04629 21.7062 5.04629C22.9154 5.08271 24.1659 5.29979 25.1616 5.97141L25.1601 5.96995ZM19.9785 6.86301C19.9785 6.86301 19.9785 11.2803 19.9785 11.3808C19.9785 11.5877 22.1525 11.1914 22.3263 11.1593C23.3971 10.9568 24.5341 10.6655 24.7772 9.4344C25.0158 8.22519 24.0923 7.30153 22.9729 7.05386C22.7299 6.99996 19.9785 6.68382 19.9785 6.86301Z" fill="url(#paint0_linear_355_4068)"/>
<path d="M29.1885 4.58447L30.5332 5.89857L29.1885 7.21268L27.8438 5.89857L29.1885 4.58447ZM28.2164 8.20626H30.1606V16.2832H28.2164V8.20626Z" fill="url(#paint1_linear_355_4068)"/>
<path d="M48.791 5.02246H50.7352V16.7212H48.791V5.02246Z" fill="url(#paint2_linear_355_4068)"/>
<path d="M57.6771 8.20557H59.7348L56.5106 16.1703L55.1497 19.6158H53.1082L54.5826 15.962L51.4395 8.20557H53.5133L55.5871 13.8626L57.6771 8.20557Z" fill="url(#paint3_linear_355_4068)"/>
<path d="M31.5514 10.1584C31.5514 9.45329 31.5514 8.68115 31.5352 8.06926H33.7843C33.8314 8.28342 33.8608 8.85889 33.8741 9.1255C34.1598 8.60393 34.8374 7.87695 36.3073 7.87695C37.9923 7.87695 39.0867 9.00312 39.0867 11.0879V16.3647H36.7654V11.3429C36.7654 10.4105 36.4517 9.73447 35.4265 9.73447C34.4014 9.73447 33.8756 10.2764 33.8756 11.742V16.3647H31.5543V10.1599L31.5514 10.1584Z" fill="url(#paint4_linear_355_4068)"/>
<path d="M48.0369 15.3536C48.0369 18.0168 47.0442 19.7009 43.8672 19.7009C40.6902 19.7009 40.2012 18.0095 40.1216 17.0727H42.4886C42.6521 17.6424 43.0763 18.0299 43.9718 18.0299C45.4785 18.0299 45.7628 17.1208 45.7628 15.4949V15.0987C45.3254 15.8155 44.6316 16.2642 43.3988 16.2642C41.1895 16.2642 39.9316 14.4737 39.9316 12.2432C39.9316 9.64996 41.5017 7.87549 43.5991 7.87549C45.0381 7.87549 45.6361 8.54565 45.7628 8.93318C45.779 8.70882 45.8379 8.20329 45.8541 8.0678H48.0561C48.0414 8.80789 48.0384 9.64996 48.0384 10.4483V15.3522L48.0369 15.3536ZM42.3162 12.1427C42.3162 13.5704 43.038 14.4125 44.0646 14.4125C45.4623 14.4125 45.835 13.4626 45.835 12.0713C45.835 10.68 45.5861 9.71698 44.1132 9.71698C43.1057 9.71698 42.3162 10.4848 42.3162 12.1427Z" fill="url(#paint5_linear_355_4068)"/>
</g>
<path d="M12.5975 16.1637H2.2668C1.87526 16.1637 1.55859 15.8505 1.55859 15.4632V6.10946C1.55859 4.29115 3.17937 2.57892 4.74551 1.97349C6.12853 1.4391 7.6026 1.44411 8.69121 1.98649C9.77071 2.52488 10.6459 3.5296 11.0293 4.67242C11.4643 5.96735 11.2509 7.43741 10.4708 8.50918C10.2847 8.76536 10.0752 8.99153 9.85367 9.19868C9.97812 9.87316 10.0307 11.1361 8.96741 11.9967C8.66491 12.2419 8.21874 12.1978 7.97087 11.8986C7.723 11.5994 7.76751 11.1581 8.07103 10.9129C8.27843 10.7448 8.39275 10.5296 8.45042 10.3085C7.97997 10.6407 7.31527 11.013 6.5494 10.8288C6.03848 10.7058 5.59839 10.3305 5.4011 9.84814C5.20382 9.3658 5.25541 8.79339 5.53566 8.35307C5.80984 7.92276 6.2641 7.62955 6.92475 7.45542C7.68556 7.25528 8.42513 7.32733 8.95527 7.65257C9.04531 7.7076 9.12928 7.77065 9.20617 7.8387C9.24664 7.79066 9.28509 7.74163 9.32151 7.69059C9.84052 6.97708 9.98014 5.98937 9.68573 5.11374C9.42066 4.32618 8.79542 3.60666 8.05383 3.23639C7.18881 2.80508 6.04354 2.9742 5.26148 3.27742C4.1577 3.70373 2.975 4.94362 2.975 6.10846V14.7617H12.47C13.3542 14.4174 14.1555 13.6168 14.5804 12.6452C14.9629 11.7705 14.9952 10.7958 14.6695 9.97123C14.3315 9.11562 13.4706 8.21297 12.389 8.251C12.0026 8.264 11.6697 7.96279 11.6555 7.57551C11.6414 7.18923 11.9469 6.864 12.3385 6.84999C14.1272 6.78694 15.4576 8.1159 15.9887 9.46086C16.4491 10.6267 16.4096 11.9897 15.8805 13.1996C15.2775 14.5785 14.1373 15.6713 12.8302 16.1217C12.7553 16.1477 12.6764 16.1607 12.5975 16.1607V16.1637ZM7.76144 8.74535C7.61474 8.74535 7.45287 8.76637 7.28897 8.8094C6.90249 8.91147 6.77501 9.03556 6.73353 9.10061C6.69408 9.16165 6.68598 9.25472 6.7133 9.32176C6.74062 9.38881 6.81245 9.44986 6.88327 9.46687C7.15036 9.53091 7.60968 9.18467 7.85553 8.99853L7.98503 8.90046C8.02955 8.86644 8.07406 8.83341 8.11858 8.80039C8.02044 8.76336 7.89701 8.74435 7.76043 8.74435L7.76144 8.74535Z" fill="url(#paint6_linear_355_4068)"/>
<defs>
<linearGradient id="paint0_linear_355_4068" x1="22.6092" y1="5.04004" x2="22.6092" y2="16.308" gradientUnits="userSpaceOnUse">
<stop stop-color="#E1E6FE"/>
<stop offset="1" stop-color="#F1D7FF"/>
</linearGradient>
<linearGradient id="paint1_linear_355_4068" x1="29.1885" y1="4.58447" x2="29.1885" y2="16.2832" gradientUnits="userSpaceOnUse">
<stop stop-color="#E1E6FE"/>
<stop offset="1" stop-color="#F1D7FF"/>
</linearGradient>
<linearGradient id="paint2_linear_355_4068" x1="49.7631" y1="5.02246" x2="49.7631" y2="16.7212" gradientUnits="userSpaceOnUse">
<stop stop-color="#E1E6FE"/>
<stop offset="1" stop-color="#F1D7FF"/>
</linearGradient>
<linearGradient id="paint3_linear_355_4068" x1="55.5871" y1="8.20557" x2="55.5871" y2="19.6158" gradientUnits="userSpaceOnUse">
<stop stop-color="#E1E6FE"/>
<stop offset="1" stop-color="#F1D7FF"/>
</linearGradient>
<linearGradient id="paint4_linear_355_4068" x1="35.3109" y1="7.87695" x2="35.3109" y2="16.3647" gradientUnits="userSpaceOnUse">
<stop stop-color="#E1E6FE"/>
<stop offset="1" stop-color="#F1D7FF"/>
</linearGradient>
<linearGradient id="paint5_linear_355_4068" x1="43.9939" y1="7.87549" x2="43.9939" y2="19.7009" gradientUnits="userSpaceOnUse">
<stop stop-color="#E1E6FE"/>
<stop offset="1" stop-color="#F1D7FF"/>
</linearGradient>
<linearGradient id="paint6_linear_355_4068" x1="8.93316" y1="1.57617" x2="8.93316" y2="16.1637" gradientUnits="userSpaceOnUse">
<stop stop-color="#E1E6FE"/>
<stop offset="1" stop-color="#F1D7FF"/>
</linearGradient>
<clipPath id="clip0_355_4068">
<rect width="41.8374" height="15.118" fill="white" transform="translate(17.8945 4.58252)"/>
</clipPath>
</defs>
</svg>
