<svg width="36" height="36" viewBox="0 0 36 36" fill="none" xmlns="http://www.w3.org/2000/svg">
<path d="M12.7711 4.36256C14.4169 -0.71981 21.5831 -0.719813 23.2289 4.36256L23.709 5.84508C24.445 8.11799 26.556 9.65686 28.9379 9.65686H30.4915C35.8175 9.65686 38.032 16.4952 33.7231 19.6362L32.4662 20.5525C30.5393 21.9572 29.7329 24.4472 30.469 26.7201L30.9491 28.2026C32.5949 33.285 26.7974 37.5113 22.4885 34.3702L21.2316 33.4539C19.3047 32.0492 16.6953 32.0492 14.7684 33.4539L13.5115 34.3702C9.20263 37.5113 3.40512 33.285 5.05095 28.2026L5.53103 26.7201C6.26707 24.4472 5.46075 21.9572 3.53377 20.5525L2.27689 19.6362C-2.03196 16.4952 0.182498 9.65686 5.50853 9.65686H7.06212C9.44399 9.65686 11.555 8.11799 12.291 5.84508L12.7711 4.36256Z" fill="#D9D9D9"/>
</svg>
