<svg width="90" height="90" viewBox="0 0 90 90" fill="none" xmlns="http://www.w3.org/2000/svg">
<path fill-rule="evenodd" clip-rule="evenodd" d="M44.7682 89.0511C56.5131 89.0511 67.7768 84.3855 76.0817 76.0807C84.3865 67.7759 89.0521 56.5121 89.0521 44.7673C89.0521 33.0225 84.3865 21.7587 76.0817 13.4538C67.7768 5.14901 56.5131 0.483398 44.7682 0.483398C33.0234 0.483398 21.7597 5.14901 13.4548 13.4538C5.14998 21.7587 0.484375 33.0225 0.484375 44.7673C0.484375 56.5121 5.14998 67.7759 13.4548 76.0807C21.7597 84.3855 33.0234 89.0511 44.7682 89.0511ZM65.2883 37.6099C66.2966 36.5659 66.8546 35.1676 66.8419 33.7162C66.8293 32.2648 66.2472 30.8765 65.2209 29.8501C64.1945 28.8238 62.8062 28.2417 61.3548 28.229C59.9034 28.2164 58.5051 28.7744 57.4611 29.7827L39.2328 48.0111L32.0754 40.8537C31.0314 39.8453 29.6331 39.2874 28.1817 39.3C26.7303 39.3126 25.342 39.8948 24.3156 40.9211C23.2893 41.9474 22.7072 43.3358 22.6945 44.7872C22.6819 46.2386 23.2399 47.6369 24.2482 48.6809L35.3192 59.7518C36.3572 60.7896 37.7649 61.3725 39.2328 61.3725C40.7006 61.3725 42.1083 60.7896 43.1463 59.7518L65.2883 37.6099Z" fill="#141434"/>
</svg>
