<svg width="28" height="28" viewBox="0 0 28 28" fill="none" xmlns="http://www.w3.org/2000/svg">
<path fill-rule="evenodd" clip-rule="evenodd" d="M14.0008 25.1998C16.9712 25.1998 19.82 24.0198 21.9204 21.9194C24.0208 19.819 25.2008 16.9702 25.2008 13.9998C25.2008 11.0294 24.0208 8.18062 21.9204 6.08021C19.82 3.9798 16.9712 2.7998 14.0008 2.7998C11.0304 2.7998 8.18159 3.9798 6.08119 6.08021C3.98078 8.18062 2.80078 11.0294 2.80078 13.9998C2.80078 16.9702 3.98078 19.819 6.08119 21.9194C8.18159 24.0198 11.0304 25.1998 14.0008 25.1998ZM12.1906 10.21C11.9265 9.95498 11.5729 9.81387 11.2058 9.81706C10.8387 9.82025 10.4876 9.96749 10.228 10.2271C9.96846 10.4866 9.82123 10.8378 9.81804 11.2048C9.81485 11.5719 9.95596 11.9256 10.211 12.1896L12.0212 13.9998L10.211 15.81C10.0773 15.9392 9.97061 16.0936 9.89724 16.2644C9.82387 16.4352 9.78525 16.619 9.78363 16.8048C9.78202 16.9907 9.81744 17.1751 9.88783 17.3471C9.95822 17.5192 10.0622 17.6755 10.1936 17.807C10.3251 17.9384 10.4814 18.0424 10.6534 18.1128C10.8255 18.1831 11.0099 18.2186 11.1957 18.217C11.3816 18.2153 11.5653 18.1767 11.7361 18.1033C11.907 18.03 12.0614 17.9233 12.1906 17.7896L14.0008 15.9794L15.811 17.7896C16.075 18.0446 16.4287 18.1857 16.7957 18.1825C17.1628 18.1794 17.514 18.0321 17.7735 17.7726C18.0331 17.513 18.1803 17.1618 18.1835 16.7948C18.1867 16.4277 18.0456 16.074 17.7906 15.81L15.9804 13.9998L17.7906 12.1896C18.0456 11.9256 18.1867 11.5719 18.1835 11.2048C18.1803 10.8378 18.0331 10.4866 17.7735 10.2271C17.514 9.96749 17.1628 9.82025 16.7957 9.81706C16.4287 9.81387 16.075 9.95498 15.811 10.21L14.0008 12.0202L12.1906 10.21Z" fill="currentColor" />
</svg>
