<svg width="28" height="28" viewBox="0 0 28 28" fill="none" xmlns="http://www.w3.org/2000/svg">
<path d="M19.0196 5.01985C19.2779 4.75242 19.5869 4.53911 19.9285 4.39236C20.2701 4.24562 20.6375 4.16838 21.0093 4.16514C21.3811 4.16191 21.7498 4.23276 22.0939 4.37355C22.438 4.51433 22.7506 4.72224 23.0135 4.98514C23.2764 5.24804 23.4843 5.56066 23.6251 5.90477C23.7659 6.24888 23.8368 6.61759 23.8335 6.98937C23.8303 7.36115 23.753 7.72857 23.6063 8.07018C23.4596 8.41179 23.2462 8.72075 22.9788 8.97905L21.8686 10.0892L17.9094 6.13005L19.0196 5.01985ZM15.9298 8.10965L4.19922 19.8402V23.7994H8.15842L19.8904 12.0688L15.9298 8.10965Z" fill="currentColor" />
</svg>
