<svg width="28" height="28" viewBox="0 0 28 28" fill="none" xmlns="http://www.w3.org/2000/svg">
<path d="M11.2008 12.6002C12.3147 12.6002 13.383 12.1577 14.1706 11.37C14.9583 10.5824 15.4008 9.5141 15.4008 8.4002C15.4008 7.28629 14.9583 6.218 14.1706 5.43035C13.383 4.64269 12.3147 4.2002 11.2008 4.2002C10.0869 4.2002 9.01859 4.64269 8.23093 5.43035C7.44328 6.218 7.00078 7.28629 7.00078 8.4002C7.00078 9.5141 7.44328 10.5824 8.23093 11.37C9.01859 12.1577 10.0869 12.6002 11.2008 12.6002ZM11.2008 15.4002C13.4286 15.4002 15.5652 16.2852 17.1405 17.8605C18.7158 19.4358 19.6008 21.5724 19.6008 23.8002H2.80078C2.80078 21.5724 3.68578 19.4358 5.26108 17.8605C6.83639 16.2852 8.97296 15.4002 11.2008 15.4002ZM22.4008 9.8002C22.4008 9.42889 22.2533 9.0728 21.9907 8.81025C21.7282 8.5477 21.3721 8.4002 21.0008 8.4002C20.6295 8.4002 20.2734 8.5477 20.0108 8.81025C19.7483 9.0728 19.6008 9.42889 19.6008 9.8002V11.2002H18.2008C17.8295 11.2002 17.4734 11.3477 17.2108 11.6102C16.9483 11.8728 16.8008 12.2289 16.8008 12.6002C16.8008 12.9715 16.9483 13.3276 17.2108 13.5901C17.4734 13.8527 17.8295 14.0002 18.2008 14.0002H19.6008V15.4002C19.6008 15.7715 19.7483 16.1276 20.0108 16.3901C20.2734 16.6527 20.6295 16.8002 21.0008 16.8002C21.3721 16.8002 21.7282 16.6527 21.9907 16.3901C22.2533 16.1276 22.4008 15.7715 22.4008 15.4002V14.0002H23.8008C24.1721 14.0002 24.5282 13.8527 24.7907 13.5901C25.0533 13.3276 25.2008 12.9715 25.2008 12.6002C25.2008 12.2289 25.0533 11.8728 24.7907 11.6102C24.5282 11.3477 24.1721 11.2002 23.8008 11.2002H22.4008V9.8002Z"  fill="currentColor" />
</svg>
