<svg width="28" height="28" viewBox="0 0 28 28" fill="none" xmlns="http://www.w3.org/2000/svg">
<path d="M15.7664 12.2326C15.0371 11.5036 14.0482 11.094 13.017 11.094C11.9858 11.094 10.9968 11.5036 10.2675 12.2326L6.37864 16.1215C6.00721 16.4802 5.71095 16.9094 5.50713 17.3838C5.30332 17.8583 5.19604 18.3686 5.19155 18.8849C5.18707 19.4013 5.28546 19.9134 5.481 20.3913C5.67653 20.8692 5.9653 21.3035 6.33044 21.6686C6.69557 22.0337 7.12978 22.3225 7.60771 22.518C8.08564 22.7136 8.59772 22.812 9.11409 22.8075C9.63045 22.803 10.1408 22.6957 10.6152 22.4919C11.0897 22.2881 11.5188 21.9918 11.8775 21.6204L12.9489 20.55M12.212 15.7871C12.9412 16.5161 13.9302 16.9257 14.9614 16.9257C15.9926 16.9257 16.9816 16.5161 17.7109 15.7871L21.5997 11.8982C22.3081 11.1647 22.7001 10.1824 22.6913 9.16271C22.6824 8.14306 22.2734 7.16768 21.5524 6.44665C20.8313 5.72561 19.856 5.31662 18.8363 5.30776C17.8167 5.2989 16.8343 5.69088 16.1009 6.39927L15.0314 7.46872"  fill="currentColor" stroke-width="1.94444" stroke-linecap="round" stroke-linejoin="round"/>
<defs>
<linearGradient id="paint0_linear_883_3575" x1="14.0164" y1="4.16504" x2="14.0164" y2="23.7994" gradientUnits="userSpaceOnUse">
<stop stop-color="#E1E6FE"/>
<stop offset="1" stop-color="#F1D7FF"/>
</linearGradient>
</defs>
</svg>
