<svg width="120" height="120" viewBox="0 0 120 120" fill="none" xmlns="http://www.w3.org/2000/svg">
<g clip-path="url(#clip0_946_5861)">
<path d="M28.6872 46.4072C28.7751 46.4681 28.863 46.5289 28.9509 46.5931C30.7083 47.8808 31.9926 49.8038 32.5131 51.9195C32.9051 53.5215 32.8544 55.2654 32.1616 56.7626C31.7797 57.5872 31.2119 58.3172 30.6069 58.9966C29.4443 60.3011 28.0823 61.4705 26.46 62.1194C26.3248 62.1735 26.1728 62.2343 26.1052 62.3627C25.9801 62.5925 26.1795 62.8595 26.362 63.042C28.792 65.4822 31.222 67.9223 33.652 70.3658C31.9317 70.3658 30.2149 70.3793 28.4946 70.3895C27.893 70.3929 27.5246 70.2915 27.1157 69.8555C25.9869 68.6557 24.8614 67.4593 23.7326 66.2595C22.8708 65.3436 21.8704 63.7856 20.7281 63.2482C20.478 63.1502 20.2009 63.1502 19.9339 63.1502C19.1329 63.1536 18.2575 63.0589 17.4667 63.1637C16.8212 63.2482 16.9361 63.0725 16.8009 63.6808C16.7096 64.0897 16.8009 64.6339 16.8009 65.0563C16.8009 65.4991 16.8009 70.3793 16.8009 70.3793H12.1133C12.1133 64.6643 12.1133 58.9492 12.1133 53.2342V48.9487C12.1133 48.2627 12.1133 47.5766 12.1133 46.8905C12.1133 46.2957 11.8936 45.2007 12.1133 44.6532C12.3329 44.1057 12.8467 44.3456 13.4719 44.3591C14.2053 44.376 14.9421 44.3625 15.6755 44.3456C17.0882 44.3118 18.5009 44.2408 19.9136 44.251C20.1975 44.251 20.478 44.2645 20.7619 44.2645C23.5366 44.349 26.406 44.8526 28.6906 46.4106L28.6872 46.4072ZM16.7975 48.479C16.7975 48.479 16.7975 58.7262 16.7975 58.9594C16.7975 59.4393 21.7859 58.52 22.1847 58.4457C24.6418 57.9759 27.2509 57.3 27.8085 54.4441C28.356 51.639 26.237 49.4963 23.6684 48.9217C23.1108 48.7967 16.7975 48.0633 16.7975 48.479Z" fill="url(#paint0_linear_946_5861)"/>
<path d="M37.9411 43.2002L41.0268 46.2487L37.9411 49.2972L34.8555 46.2487L37.9411 43.2002ZM35.7105 51.6021H40.1717V70.3391H35.7105V51.6021Z" fill="url(#paint1_linear_946_5861)"/>
<path d="M82.9023 44.2148H87.3635V71.3537H82.9023V44.2148Z" fill="url(#paint2_linear_946_5861)"/>
<path d="M103.297 51.6025H108.019L100.621 70.0793L97.4978 78.0722H92.8136L96.1966 69.596L88.9844 51.6025H93.743L98.5016 64.7259L103.297 51.6025Z" fill="url(#paint3_linear_946_5861)"/>
<path d="M43.3341 56.1334C43.3341 54.4976 43.3341 52.7064 43.2969 51.2869H48.4577C48.5658 51.7838 48.6334 53.1187 48.6638 53.7372C49.3195 52.5273 50.8741 50.8408 54.2471 50.8408C58.1134 50.8408 60.6245 53.4533 60.6245 58.2897V70.5309H55.2981V58.8811C55.2981 56.7181 54.5783 55.1499 52.226 55.1499C49.8737 55.1499 48.6672 56.4072 48.6672 59.8071V70.5309H43.3408V56.1368L43.3341 56.1334Z" fill="url(#paint4_linear_946_5861)"/>
<path d="M81.1609 68.1819C81.1609 74.36 78.883 78.2669 71.593 78.2669C64.303 78.2669 63.181 74.3431 62.9985 72.17H68.4296C68.8048 73.4914 69.7781 74.3904 71.833 74.3904C75.2904 74.3904 75.9427 72.2815 75.9427 68.5097V67.5905C74.9389 69.2533 73.3471 70.2942 70.5183 70.2942C65.4488 70.2942 62.5625 66.1406 62.5625 60.9663C62.5625 54.9504 66.1652 50.834 70.9779 50.834C74.2799 50.834 75.652 52.3886 75.9427 53.2876C75.9799 52.7672 76.115 51.5944 76.1522 51.2801H81.2049C81.1711 52.997 81.1643 54.9504 81.1643 56.8025V68.1785L81.1609 68.1819ZM68.0342 60.7331C68.0342 64.0452 69.6903 65.9986 72.0459 65.9986C75.2532 65.9986 76.1083 63.7951 76.1083 60.5675C76.1083 57.3399 75.5371 55.1059 72.1574 55.1059C69.8457 55.1059 68.0342 56.887 68.0342 60.7331Z" fill="url(#paint5_linear_946_5861)"/>
</g>
<defs>
<linearGradient id="paint0_linear_946_5861" x1="22.8338" y1="44.25" x2="22.8338" y2="70.3896" gradientUnits="userSpaceOnUse">
<stop stop-color="#E1E6FE"/>
<stop offset="1" stop-color="#F1D7FF"/>
</linearGradient>
<linearGradient id="paint1_linear_946_5861" x1="37.9411" y1="43.2002" x2="37.9411" y2="70.3391" gradientUnits="userSpaceOnUse">
<stop stop-color="#E1E6FE"/>
<stop offset="1" stop-color="#F1D7FF"/>
</linearGradient>
<linearGradient id="paint2_linear_946_5861" x1="85.1329" y1="44.2148" x2="85.1329" y2="71.3537" gradientUnits="userSpaceOnUse">
<stop stop-color="#E1E6FE"/>
<stop offset="1" stop-color="#F1D7FF"/>
</linearGradient>
<linearGradient id="paint3_linear_946_5861" x1="98.5016" y1="51.6025" x2="98.5016" y2="78.0722" gradientUnits="userSpaceOnUse">
<stop stop-color="#E1E6FE"/>
<stop offset="1" stop-color="#F1D7FF"/>
</linearGradient>
<linearGradient id="paint4_linear_946_5861" x1="51.9607" y1="50.8408" x2="51.9607" y2="70.5309" gradientUnits="userSpaceOnUse">
<stop stop-color="#E1E6FE"/>
<stop offset="1" stop-color="#F1D7FF"/>
</linearGradient>
<linearGradient id="paint5_linear_946_5861" x1="71.8837" y1="50.834" x2="71.8837" y2="78.2669" gradientUnits="userSpaceOnUse">
<stop stop-color="#E1E6FE"/>
<stop offset="1" stop-color="#F1D7FF"/>
</linearGradient>
<clipPath id="clip0_946_5861">
<rect width="96" height="35.071" fill="white" transform="translate(12.0078 43.2002)"/>
</clipPath>
</defs>
</svg>
